<?xml version="1.0" standalone="no"?>
<!DOCTYPE svg PUBLIC "-//W3C//DTD SVG 20010904//EN"
 "http://www.w3.org/TR/2001/REC-SVG-20010904/DTD/svg10.dtd">
<svg version="1.0" xmlns="http://www.w3.org/2000/svg"
 width="292.000000pt" height="295.000000pt" viewBox="0 0 292.000000 295.000000"
 preserveAspectRatio="xMidYMid meet">

<g transform="translate(0.000000,295.000000) scale(0.100000,-0.100000)"
fill="#000000" stroke="none">
<path d="M1220 2823 c-556 -96 -1011 -555 -1104 -1112 -21 -122 -21 -340 0
-462 94 -562 551 -1019 1113 -1113 122 -21 340 -21 462 0 562 94 1019 551
1113 1113 21 122 21 340 0 462 -94 562 -551 1019 -1113 1113 -118 20 -355 20
-471 -1z m-40 -939 l0 -235 -47 1 c-27 1 -68 -1 -93 -5 -95 -13 -166 67 -157
177 6 68 30 114 78 146 28 20 44 23 92 20 l57 -4 0 68 0 68 35 0 35 0 0 -236z
m490 151 l0 -45 45 0 c43 0 45 -1 45 -30 0 -29 -2 -30 -45 -30 l-45 0 0 -93
c0 -117 13 -142 70 -133 36 6 38 4 42 -23 4 -26 1 -30 -25 -35 -58 -12 -86 -6
-119 23 l-33 29 -3 115 c-3 103 -6 116 -23 120 -26 7 -25 47 1 54 15 4 20 14
20 37 0 26 6 34 28 43 41 17 42 16 42 -32z m-960 -80 c0 -34 -2 -37 -77 -71
l-78 -36 78 -35 c76 -36 77 -36 77 -74 l0 -38 -73 34 c-163 73 -177 83 -177
114 0 27 8 33 113 84 61 31 118 56 125 56 7 1 12 -12 12 -34z m758 2 c26 -26
27 -34 32 -142 3 -72 10 -119 18 -127 35 -35 0 -57 -52 -33 -26 13 -40 14 -49
7 -43 -36 -142 -18 -168 29 -16 31 -14 86 6 115 21 32 88 63 138 64 40 0 47
13 20 42 -20 22 -80 24 -110 3 -21 -15 -23 -14 -38 14 -15 29 -14 31 12 46 20
11 48 14 96 12 58 -2 71 -6 95 -30z m580 0 c26 -26 27 -34 32 -142 3 -72 10
-119 18 -127 35 -35 0 -57 -52 -33 -26 13 -40 14 -49 7 -43 -36 -142 -18 -168
29 -16 31 -14 86 6 115 21 32 88 63 138 64 40 0 47 13 20 42 -20 22 -80 24
-110 3 -21 -15 -23 -14 -38 14 -15 29 -14 31 12 46 20 11 48 14 96 12 58 -2
71 -6 95 -30z m-358 -802 l0 -195 25 -16 c33 -21 36 -74 5 -74 -29 0 -78 27
-90 49 -6 12 -10 103 -10 225 l0 206 35 0 35 0 0 -195z m310 178 c0 -30 -16
-46 -39 -38 -15 4 -28 -1 -46 -19 -36 -36 -33 -56 10 -56 32 0 35 -2 35 -30 0
-28 -3 -30 -35 -30 l-35 0 0 -141 0 -140 -32 3 -33 3 -3 138 c-2 129 -4 137
-22 137 -16 0 -20 7 -20 30 0 25 4 30 25 30 21 0 25 5 25 31 0 22 10 41 34 65
30 30 40 34 85 34 42 0 51 -3 51 -17z m-784 -124 c3 -6 0 -18 -9 -26 -11 -12
-12 -22 -4 -48 26 -84 -29 -157 -127 -169 -82 -11 -86 -30 -4 -22 87 10 131
-8 148 -58 32 -97 -101 -169 -225 -121 -48 18 -53 28 -30 59 13 18 16 18 55 2
51 -20 89 -20 118 0 53 37 13 66 -81 57 -57 -5 -67 -3 -86 16 -27 27 -26 36 2
65 l23 23 -23 27 c-48 56 -43 127 14 176 33 30 40 31 99 28 40 -2 68 2 75 9
13 13 42 3 55 -18z m276 -6 c44 -26 68 -80 68 -155 0 -116 -50 -173 -150 -173
-99 0 -153 62 -152 175 0 66 18 106 62 144 26 21 42 26 87 26 34 0 66 -7 85
-17z m871 -40 c113 -55 118 -58 115 -86 -3 -27 -13 -34 -126 -88 l-123 -58 3
40 c3 39 4 41 77 74 l75 34 -77 35 c-75 34 -77 36 -77 70 0 20 3 36 8 36 4 0
60 -26 125 -57z"/>
<path d="M987 1900 c-33 -38 -41 -78 -27 -130 14 -52 60 -79 112 -64 l33 10 3
93 c3 107 -3 121 -58 121 -30 0 -44 -6 -63 -30z"/>
<path d="M1352 1805 c-26 -11 -52 -46 -52 -70 0 -13 36 -35 58 -35 46 0 72 26
72 69 0 52 -20 61 -78 36z"/>
<path d="M1932 1805 c-26 -11 -52 -46 -52 -70 0 -13 36 -35 58 -35 46 0 72 26
72 69 0 52 -20 61 -78 36z"/>
<path d="M1033 1144 c-20 -20 -24 -31 -19 -57 6 -32 38 -67 61 -67 23 0 55 35
61 67 5 26 1 37 -19 57 -15 14 -33 26 -42 26 -9 0 -27 -12 -42 -26z"/>
<path d="M1364 1147 c-27 -24 -29 -30 -29 -102 0 -69 3 -79 24 -96 33 -27 73
-24 102 7 21 22 24 35 24 95 0 55 -4 72 -20 88 -34 33 -68 36 -101 8z"/>
</g>
</svg>
